<svg xmlns="http://www.w3.org/2000/svg" width="150" height="150"><path fill="#F3FC8A" d="M23.996 12V8C23.996 2.477 20 0 16 0H7.996C4 0 0 2.125 0 8c0 5.75 4 8 7.996 8h.93c-.566 1.1-.93 2.406-.93 4v4c0 4.418 3.586 8 8.004 8a4 4 0 0 1 4-4h3.996C28 28 32 25.75 32 20c0-5.875-4-8-8.004-8zm-16 0C4 12 4 8.988 4 8c0-1.199 0-4 3.996-4H16c1.496 0 4 .52 4 4v4a3.982 3.982 0 0 1-1.609 3.201A7.985 7.985 0 0 0 12 12H7.996zm16 12H20a7.995 7.995 0 0 0-6.398 3.199A3.995 3.995 0 0 1 12 24v-4c0-1.83.91-2.941 1.816-3.512C15.098 17.156 16 18.457 16 20c2.957 0 5.508-1.621 6.895-4.004l-.004.002 1.105.002C28 16 28 18.803 28 20c0 .992 0 4-4.004 4zm-.277-10.006c-.027.092-.059.182-.086.271.027-.089.062-.179.086-.271z"/></svg>